<svg viewBox="0 0 786 753" fill="none" xmlns="http://www.w3.org/2000/svg">
<path d="M284.735 0.922946C275.643 3.15291 267.242 6.49787 256.568 12.1741C211.106 36.0956 177.799 81.1004 167.718 132.288C159.713 172.529 164.852 212.466 183.037 251.186C206.065 300.245 238.284 326.296 275.84 326.296C308.158 326.296 337.412 306.124 354.609 271.965C366.667 247.841 370.719 225.947 371.905 178.205C373.881 93.9734 358.266 32.5479 329.012 9.74146C319.623 2.54474 313.594 0.517498 300.054 0.213411C293.828 0.0106869 286.909 0.314773 284.735 0.922946Z" fill="white"/>
<path d="M471.823 2.13932C445.93 11.3633 428.436 42.1774 420.233 93.1625C415.984 119.111 415.292 130.16 415.193 165.535C415.193 210.337 417.367 231.218 424.187 252.098C439.11 297.813 472.416 326.296 511.06 326.296C547.726 326.296 579.846 300.955 602.775 253.72C611.967 234.867 617.007 219.865 620.96 199.998C623.728 185.706 623.431 150.939 620.466 136.748C614.042 106.542 601.392 79.4787 582.712 56.064C574.707 46.0291 558.993 30.9262 548.714 23.4254C538.041 15.6205 521.635 7.0047 510.565 3.35566C503.845 1.12569 499.793 0.41616 490.305 0.112073C479.829 -0.192013 477.654 0.0107109 471.823 2.13932Z" fill="white"/>
<path d="M59.1025 202.33C37.5572 210.236 22.2383 236.793 10.082 287.677C-8.3995 364.915 1.08834 426.441 37.4584 465.77C55.1492 484.927 78.8688 498.003 105.158 503.173C117.611 505.707 138.069 505.403 148.15 502.666C176.218 495.064 190.944 472.156 193.81 431.611C194.502 421.982 193.019 400.695 190.746 387.214C182.741 339.473 162.184 288.488 134.709 248.652C126.407 236.489 105.257 214.595 97.2515 209.729C82.9209 201.113 69.4798 198.579 59.1025 202.33Z" fill="white"/>
<path d="M706.549 202.026C695.381 205.168 685.794 211.351 673.242 223.818C656.836 240.036 642.901 260.207 629.361 287.474C599.316 347.886 586.369 412.859 596.154 454.823C598.822 466.175 606.333 480.873 613.153 487.968C624.716 499.929 638.058 504.693 659.801 504.896C691.921 505.098 722.065 492.834 745.192 470.128C786.899 429.178 796.98 361.57 773.853 276.02C764.069 239.834 752.406 217.737 737.779 207.702C727.6 200.708 717.815 198.985 706.549 202.026Z" fill="white"/>
<path d="M371.905 331.769C354.313 334.709 341.86 339.473 329.209 347.987C311.815 359.644 301.833 371.604 275.84 411.744C245.795 458.269 233.837 472.257 198.356 502.97C181.753 517.262 167.323 538.751 159.021 561.354C149.039 588.418 148.249 624.3 156.946 652.58C179.183 724.548 253.504 767.322 323.181 748.266C328.122 746.949 337.116 744.516 343.046 742.793C364.295 736.914 388.014 734.684 409.263 736.61C424.977 738.13 436.738 740.563 454.726 745.834C486.549 755.362 513.53 755.159 541.5 745.225C586.172 729.312 619.478 692.72 631.634 646.397C638.552 619.638 637.07 586.29 627.78 561.05C618.588 536.014 605.147 517.262 582.416 497.699C552.964 472.257 538.139 454.215 507.403 406.169C492.973 383.869 481.41 368.361 472.911 360.151C458.283 346.061 441.68 337.344 420.629 332.681C410.251 330.35 383.171 329.843 371.905 331.769Z" fill="white"/>
</svg>
